<svg width="23" height="24" viewBox="0 0 23 24" fill="none" xmlns="http://www.w3.org/2000/svg">
<path d="M18.2187 14.2222H9.13062L9.33353 15.3333H17.655C18.1325 15.3333 18.4864 15.8299 18.3806 16.3514L18.2095 17.1943C18.789 17.5093 19.1885 18.1746 19.1885 18.9444C19.1885 20.0278 18.3974 20.9043 17.4269 20.8887C16.5023 20.8738 15.7419 20.0334 15.717 18.9982C15.7033 18.4326 15.9056 17.9201 16.2379 17.5555H9.73838C10.0601 17.9085 10.26 18.4002 10.26 18.9444C10.26 20.0491 9.43754 20.9386 8.44108 20.8867C7.55628 20.8407 6.83669 20.04 6.79019 19.0493C6.75429 18.2843 7.11373 17.6099 7.65983 17.2582L5.48203 5.33333H3.31552C2.90459 5.33333 2.57147 4.96024 2.57147 4.5V3.94444C2.57147 3.4842 2.90459 3.11111 3.31552 3.11111H6.49412C6.84757 3.11111 7.15223 3.38961 7.22307 3.77743L7.50723 5.33333H19.6842C20.1617 5.33333 20.5156 5.82989 20.4098 6.35135L18.9442 13.5736C18.8673 13.953 18.5661 14.2222 18.2187 14.2222ZM15.2203 8.94444H13.7322V7.55555C13.7322 7.24871 13.5101 7 13.2362 7H12.7401C12.4662 7 12.2441 7.24871 12.2441 7.55555V8.94444H10.756C10.482 8.94444 10.26 9.19316 10.26 9.5V10.0556C10.26 10.3624 10.482 10.6111 10.756 10.6111H12.2441V12C12.2441 12.3068 12.4662 12.5556 12.7401 12.5556H13.2362C13.5101 12.5556 13.7322 12.3068 13.7322 12V10.6111H15.2203C15.4942 10.6111 15.7163 10.3624 15.7163 10.0556V9.5C15.7163 9.19316 15.4942 8.94444 15.2203 8.94444Z" fill="#0E161A"/>
</svg>
